<svg xmlns="http://www.w3.org/2000/svg" viewBox="0 0 1920 1080"><defs><style>.cls-1{fill:red;}.cls-2{fill:#fff;}</style></defs><g id="_Camada_2" data-name="&lt;Camada&gt;"><path class="cls-1" d="M1279.51,871.63c-79.3-1.84-165.15-3.14-250.94-6.13a949.7,949.7,0,0,1-108.78-9.73c-42-6.35-73.42-28.89-89.25-70-8.08-20.94-14-42.44-16.35-64.79-11.46-107.42-12.14-215-4.45-322.68,2.43-34.08,6.21-67.82,18.57-100.14,18-47.15,53.16-72.74,102.14-76.68,63.48-5.11,127.2-7.83,190.87-10.16,109.1-4,218.27-3.67,327.4-.87,52.19,1.33,104.34,4.07,156.48,6.67,24.36,1.22,48,5.79,69.4,18.71,28.79,17.35,44.06,43.81,53.56,75,8.65,28.42,11.12,57.65,13.29,87,6.17,83.41,5.92,166.88,1,250.31-2.06,34.93-3.17,70.22-12.61,104.15-5.07,18.2-11.17,36.8-20.69,52.92-19.3,32.7-50.42,50.08-87.57,53.54-45.86,4.28-91.95,6.64-138,8.23C1417.79,869.22,1351.93,870.05,1279.51,871.63Zm62.23-417.72c0-2.71,0-6.38,0-10.06.1-39.05.12-78.11.39-117.16,0-5.35-1.23-7.47-7.05-7.3-14.11.45-28.24.52-42.34.08-6.66-.21-8.8,1.63-8.78,8.56.18,61.63,0,123.27-.09,184.91q-.13,111.87-.26,223.73c0,9.13,0,9.18,9.37,9.21q18.7.06,37.41,0c12.14-.09,10.61,1.2,10.81-11.15.1-6,0-12,0-17.27,10.54,8.27,20.08,17.57,31.23,24.13,33,19.42,68.1,4.9,76.74-32.18,3.92-16.79,5.27-34.44,5.57-51.74.82-46.8,1.12-93.64.24-140.44a270.11,270.11,0,0,0-7-55.77c-8-34.37-39.64-48.84-71.1-32.66C1364.39,435.2,1353.71,445.2,1341.74,453.91ZM1176.45,713.17c0,9.54.2,17.92-.07,26.28-.15,4.78,1.37,6.65,6.41,6.57,16-.25,32-.28,48,0,5.46.1,6.72-2.09,6.72-7.06q0-152.09.3-304.17c0-5.81-2.22-7.08-7.5-7-14.81.3-29.63.13-44.45.18-9.19,0-9.22.05-9.23,9.2q-.08,111.5-.14,223c0,13.29-16.64,33.48-29.82,36.22-9.8,2-15.47-2.23-16.07-12.3-.26-4.22-.14-8.46-.14-12.7q0-117.5.11-235c0-6.44-1.7-8.61-8.29-8.4-14.81.47-29.65.54-44.45.06-7-.23-8.5,2.34-8.48,8.9.2,80.92,0,161.85.26,242.77a201.29,201.29,0,0,0,2.92,33c4.31,25.48,20.65,38.94,44.67,37.56,15-.86,27.36-8,38.38-17.6C1162.38,726.74,1168.82,720.33,1176.45,713.17Zm429.19-79.54c0,7.47.31,13.8-.07,20.09-.53,8.87-.56,18-2.66,26.5-2.56,10.47-10.79,15.84-21.31,16.36-11.71.57-19.85-4.09-24.18-14.48-1.7-4.07-3.23-8.56-3.32-12.89-.5-23.49-.54-47-.68-70.48,0-.59.59-1.18,1.1-2.11h8.35q47.63-.07,95.26-.16c9,0,9.09,0,9.13-9.39.08-20.23.63-40.47,0-60.67a208.49,208.49,0,0,0-4.2-37.75c-16-73-96.72-80.35-136-48.21-23.1,18.89-32.68,44.29-33.62,72.55-1.56,46.76-1.3,93.6-1.27,140.4,0,16.78,3.21,33.22,10.54,48.57,15.72,32.91,45.16,49.41,84.76,47.42,31-1.55,54-15.92,68.8-43.23,11.71-21.67,10.15-45.5,10.43-68.95,0-1.17-2.62-3.4-4.05-3.41C1644.06,633.55,1625.52,633.63,1605.64,633.63ZM946.23,382.06c.15,3.24.35,5.76.36,8.29q.12,78,.22,156,.12,94.93.27,189.86c0,9.77.13,9.79,9.54,9.8q21.89,0,43.76,0c10.6,0,10.63,0,10.62-10.69q-.12-169.74-.26-339.48v-14c4.55,0,8.27,0,12,0,16.7,0,33.4-.26,50.11,0,5.51.08,7.35-1.73,7.24-7.28-.32-15.76-.26-31.53,0-47.29.07-5-1.12-7.12-6.69-6.94-13.63.44-27.28.21-40.93.26-48.23.17-96.46.42-144.69.44-5.33,0-7.57,1.27-7.32,7.1.46,10.81,0,21.64.19,32.46.09,6.78-2,16.35,1.49,19.57,4,3.64,13.18,1.85,20.11,1.94C916.72,382.19,931.24,382.06,946.23,382.06Z"/><path class="cls-2" d="M696.87,427.09h58.87V744.53H698V711.16c-5.47,5.35-9.69,9.6-14,13.71-13.71,12.94-28.15,24.37-48.42,24.51-18.34.13-32.37-8.53-37.45-26.18a148.22,148.22,0,0,1-6-38.82c-.88-84.23-1-168.46-1.4-252.69,0-1.17.2-2.33.35-4.1h57.78c.12,2.53.35,5.22.36,7.92q.54,121.41,1,242.82a59.12,59.12,0,0,0,.16,7c1.25,9.86,8.38,15.32,17.45,11.4,7.25-3.14,13.59-8.83,19.66-14.16,8-7,10.51-15.9,10.39-26.94-.79-72.7-.81-145.4-1.07-218.11C696.86,434.33,696.87,431.09,696.87,427.09Z"/><path class="cls-2" d="M390.18,320.53c-10.56,35.1-20.76,69.06-31,103q-21.68,71.93-43.29,143.86a38.26,38.26,0,0,0-1.5,11.07q.33,78.69.89,157.39c0,2.57,0,5.13,0,8.37H253.91c0-2.68,0-5.2,0-7.72-.25-52.7-.39-105.4-.94-158.1-.07-6.18-1.93-12.5-3.81-18.49q-36.36-115.71-73-231.35c-.69-2.18-1.3-4.39-2.26-7.65,20.89,0,40.84-.16,60.77.26,1.77,0,4.41,3.54,5.05,5.87,9.5,34.21,18.72,68.5,28,102.76,4.89,18,9.8,36.06,16.16,54.19,3.1-11.9,6.26-23.78,9.3-35.7,10.26-40.33,20.57-80.65,30.58-121,1.23-5,3-7,8.33-6.87C351.11,320.73,370.13,320.53,390.18,320.53Z"/><path class="cls-2" d="M380.43,585.49c0-24.21-.68-48.45.29-72.63a133,133,0,0,1,6.42-35.21c9.13-28.16,28.09-46.57,58.05-51,33.54-5,63.45,1.61,84.24,31.21,10.55,15,14.69,32.55,16.12,50.51,1.22,15.44,1.37,31,1.48,46.5.25,33.86.59,67.73,0,101.58a151.87,151.87,0,0,1-4.82,35.5c-9.09,34.86-40.06,58-76.56,58.43-36.71.42-69.62-22.66-78.85-57.57-4.16-15.71-5.33-32.4-6.18-48.73-1-19.47-.24-39-.24-58.54Zm109.12,3.11h-.83c0-24.7.19-49.39-.13-74.08a72.4,72.4,0,0,0-2.78-19.43c-3.31-11.11-12-16.8-23.43-16.58-11.22.21-19.58,6.49-22.44,17.82a74.35,74.35,0,0,0-2.36,18.1q.15,73,.91,146a78.64,78.64,0,0,0,3,20.8c3.23,11.1,12,16.87,23.31,16.8,10.58-.07,19.1-6.2,22.12-17.34a81.77,81.77,0,0,0,2.5-20.17C489.72,636.58,489.55,612.59,489.55,588.6Z"/><path class="cls-2" d="M1341.74,453.91c12-8.71,22.65-18.71,35.15-25.14,31.46-16.18,63.1-1.71,71.1,32.66a270.11,270.11,0,0,1,7,55.77c.88,46.8.58,93.64-.24,140.44-.3,17.3-1.65,35-5.57,51.74-8.64,37.08-43.79,51.6-76.74,32.18-11.15-6.56-20.69-15.86-31.23-24.13,0,5.27.08,11.27,0,17.27-.2,12.35,1.33,11.06-10.81,11.15q-18.71.12-37.41,0c-9.33,0-9.38-.08-9.37-9.21q.11-111.85.26-223.73c.08-61.64.27-123.28.09-184.91,0-6.93,2.12-8.77,8.78-8.56,14.1.44,28.23.37,42.34-.08,5.82-.17,7.09,1.95,7.05,7.3-.27,39.05-.29,78.11-.39,117.16C1341.73,447.53,1341.74,451.2,1341.74,453.91Zm0,131.91h-.48c0,28.44.66,56.91-.33,85.32-.39,11.28,4.5,17,13.41,21.13a56.22,56.22,0,0,0,8.51,3.33c13.73,3.9,24-1.37,27.81-15a80.42,80.42,0,0,0,3.06-20.84q.49-75.11.24-150.22a72.32,72.32,0,0,0-3-19.4c-2.68-9.33-8.56-13.13-18.31-13.54-9.46-.4-17.21,3.69-24.77,8.74-4.57,3.06-6.24,6.84-6.19,12.36C1341.86,527.05,1341.73,556.44,1341.73,585.82Z"/><path class="cls-2" d="M1176.45,713.17c-7.63,7.16-14.07,13.57-20.89,19.53-11,9.61-23.35,16.74-38.38,17.6-24,1.38-40.36-12.08-44.67-37.56a201.29,201.29,0,0,1-2.92-33c-.24-80.92-.06-161.85-.26-242.77,0-6.56,1.44-9.13,8.48-8.9,14.8.48,29.64.41,44.45-.06,6.59-.21,8.31,2,8.29,8.4q-.3,117.49-.11,235c0,4.24-.12,8.48.14,12.7.6,10.07,6.27,14.34,16.07,12.3,13.18-2.74,29.81-22.93,29.82-36.22q.08-111.51.14-223c0-9.15,0-9.18,9.23-9.2,14.82,0,29.64.12,44.45-.18,5.28-.11,7.51,1.16,7.5,7q-.35,152.09-.3,304.17c0,5-1.26,7.16-6.72,7.06-16-.3-32-.27-48,0-5,.08-6.56-1.79-6.41-6.57C1176.65,731.09,1176.45,722.71,1176.45,713.17Z"/><path class="cls-2" d="M1605.64,633.63c19.88,0,38.42-.08,57,.16,1.43,0,4.07,2.24,4.05,3.41-.28,23.45,1.28,47.28-10.43,68.95-14.75,27.31-37.83,41.68-68.8,43.23-39.6,2-69-14.51-84.76-47.42-7.33-15.35-10.52-31.79-10.54-48.57,0-46.8-.29-93.64,1.27-140.4.94-28.26,10.52-53.66,33.62-72.55,39.31-32.14,120.07-24.8,136,48.21a208.49,208.49,0,0,1,4.2,37.75c.65,20.2.1,40.44,0,60.67,0,9.36-.08,9.38-9.13,9.39q-47.62.1-95.26.16h-8.35c-.51.93-1.11,1.52-1.1,2.11.14,23.49.18,47,.68,70.48.09,4.33,1.62,8.82,3.32,12.89,4.33,10.39,12.47,15,24.18,14.48,10.52-.52,18.75-5.89,21.31-16.36,2.1-8.54,2.13-17.63,2.66-26.5C1606,647.43,1605.64,641.1,1605.64,633.63Zm1.12-85.62c-.83-18.59-.77-36.39-2.68-54-1.4-12.9-9.32-17.83-23.63-17.84-15.3,0-23.36,4.92-24.81,18.19-1.79,16.26-1.65,32.74-2,49.14,0,1.46,2.47,4.26,3.84,4.28C1573.38,548.11,1589.28,548,1606.76,548Z"/><path class="cls-2" d="M946.23,382.06c-15,0-29.51.13-44-.05-6.93-.09-16.13,1.7-20.11-1.94-3.53-3.22-1.4-12.79-1.49-19.57-.15-10.82.27-21.65-.19-32.46-.25-5.83,2-7.1,7.32-7.1,48.23,0,96.46-.27,144.69-.44,13.65-.05,27.3.18,40.93-.26,5.57-.18,6.76,1.94,6.69,6.94-.23,15.76-.29,31.53,0,47.29.11,5.55-1.73,7.36-7.24,7.28-16.71-.23-33.41,0-50.11,0-3.71,0-7.43,0-12,0v14q.13,169.74.26,339.48c0,10.66,0,10.68-10.62,10.69q-21.89,0-43.76,0c-9.41,0-9.52,0-9.54-9.8q-.18-94.93-.27-189.86-.12-78-.22-156C946.58,387.82,946.38,385.3,946.23,382.06Z"/><path class="cls-1" d="M1341.73,585.82c0-29.38.13-58.77-.1-88.15-.05-5.52,1.62-9.3,6.19-12.36,7.56-5.05,15.31-9.14,24.77-8.74,9.75.41,15.63,4.21,18.31,13.54a72.32,72.32,0,0,1,3,19.4q.25,75.11-.24,150.22a80.42,80.42,0,0,1-3.06,20.84c-3.81,13.67-14.08,18.94-27.81,15a56.22,56.22,0,0,1-8.51-3.33c-8.91-4.18-13.8-9.85-13.41-21.13,1-28.41.33-56.88.33-85.32Z"/><path class="cls-1" d="M1606.76,548c-17.48,0-33.38.1-49.27-.2-1.37,0-3.88-2.82-3.84-4.28.34-16.4.2-32.88,2-49.14,1.45-13.27,9.51-18.2,24.81-18.19,14.31,0,22.23,4.94,23.63,17.84C1606,511.62,1605.93,529.42,1606.76,548Z"/></g></svg>